<?xml version="1.0" standalone="no"?>
<!DOCTYPE svg PUBLIC "-//W3C//DTD SVG 20010904//EN"
 "http://www.w3.org/TR/2001/REC-SVG-20010904/DTD/svg10.dtd">
<svg version="1.0" xmlns="http://www.w3.org/2000/svg"
 width="733.000000pt" height="720.000000pt" viewBox="0 0 733.000000 720.000000"
 preserveAspectRatio="xMidYMid meet">
<metadata>
Created by potrace 1.15, written by Peter Selinger 2001-2017
</metadata>
<g transform="translate(0.000000,720.000000) scale(0.100000,-0.100000)"
fill="#000000" stroke="none">
<path d="M3300 7193 c-260 -26 -459 -63 -676 -123 -139 -39 -179 -48 -139 -29
l20 9 -20 -3 c-11 -2 -19 -8 -18 -15 2 -6 -23 -64 -55 -129 -32 -65 -70 -146
-85 -181 -25 -54 -34 -65 -78 -87 -27 -14 -49 -28 -49 -31 0 -3 25 8 56 25
l57 31 206 -10 c229 -11 426 -30 636 -61 132 -19 379 -64 418 -75 16 -5 17
-29 17 -313 0 -169 -3 -422 -7 -562 l-6 -255 -121 -75 c-373 -230 -905 -603
-1255 -881 -40 -33 -79 -57 -85 -55 -29 11 -545 159 -829 237 -175 48 -321 91
-324 94 -10 10 25 251 68 466 48 235 82 370 155 597 l54 172 98 79 c145 117
244 190 380 281 67 45 122 83 122 86 0 17 -300 -194 -493 -348 -106 -84 -110
-86 -175 -92 -37 -4 -122 -13 -189 -21 -149 -17 -156 -17 -147 -1 4 6 -5 1
-19 -12 -32 -29 -36 -42 -5 -15 12 10 -20 -36 -72 -103 -51 -67 -96 -121 -100
-118 -7 4 -50 -49 -50 -62 0 -4 12 6 26 22 l25 30 -16 -30 c-9 -16 -28 -43
-42 -60 -25 -29 -25 -29 -9 -2 9 15 13 27 8 27 -7 0 -153 -237 -163 -265 -2
-5 -21 -39 -41 -75 -43 -77 -83 -174 -67 -164 6 4 10 3 8 -2 -2 -5 -20 -46
-39 -92 -19 -46 -36 -79 -38 -74 -2 6 11 40 27 77 32 71 37 85 22 70 -18 -19
-141 -339 -141 -366 0 -6 5 -7 10 -4 13 8 13 5 -5 -46 -23 -62 -81 -298 -99
-399 -29 -160 -46 -305 -53 -440 l-6 -136 129 -101 c71 -57 137 -108 146 -115
12 -9 26 -60 48 -173 63 -323 150 -633 272 -962 l60 -162 -40 -133 c-79 -261
-91 -315 -76 -335 17 -23 18 -36 2 -27 -8 4 -10 3 -5 -2 5 -5 13 -9 17 -9 5 0
41 -47 81 -105 231 -337 560 -670 897 -909 227 -160 518 -315 795 -422 165
-63 124 -76 387 117 l185 135 98 -6 c524 -33 738 -33 1217 1 l85 6 125 -92
c166 -123 296 -210 312 -210 28 0 331 126 468 194 386 193 769 478 1028 765
41 45 78 78 84 75 7 -5 8 -2 3 5 -8 14 43 74 56 65 4 -2 11 1 15 7 4 8 3 9 -4
5 -22 -13 -12 4 38 66 28 35 87 115 131 178 44 63 84 115 89 115 5 0 12 4 17
9 5 5 2 6 -6 1 -9 -5 -12 -3 -9 6 3 8 10 14 15 14 6 0 15 4 20 9 4 5 3 7 -2 3
-7 -3 -11 7 -11 26 0 34 -45 201 -95 352 l-29 90 54 145 c103 276 199 599 262
885 18 83 33 143 33 134 1 -9 -8 -61 -19 -114 -11 -53 -20 -102 -20 -109 1
-17 64 122 85 184 25 76 55 133 114 215 28 38 51 73 51 78 0 5 -18 -6 -40 -23
-77 -61 -39 -23 50 51 l90 74 -6 75 c-14 193 -27 316 -50 449 -94 561 -324
1094 -668 1555 -81 107 -95 130 -84 143 10 12 9 18 -7 29 -10 8 -15 14 -10 14
5 0 -1 10 -13 23 -12 13 -19 27 -15 32 5 4 2 5 -4 1 -7 -4 -13 -2 -13 3 0 6
-8 11 -17 11 -13 0 -9 -8 17 -31 29 -26 31 -30 13 -26 -20 4 -21 2 -12 -14 5
-10 12 -19 15 -19 3 0 2 5 -2 11 -4 7 -1 10 7 7 8 -3 13 -10 12 -16 -2 -7 4
-9 13 -5 12 4 15 2 12 -8 -3 -8 -13 -13 -24 -12 -10 2 -73 9 -139 17 -66 8
-153 18 -193 21 l-74 7 -141 113 c-240 189 -526 379 -806 535 -111 62 -114 64
-138 119 -13 31 -51 113 -84 182 -57 118 -63 126 -97 136 -311 89 -505 128
-761 153 -94 9 -549 12 -631 3z m-420 -472 c58 -16 -12 -23 -208 -22 -113 1
-208 4 -210 6 -19 19 355 33 418 16z m2124 -128 c235 -129 507 -309 745 -491
210 -161 205 -154 256 -317 57 -181 117 -412 155 -600 33 -161 82 -476 75
-483 -2 -3 -78 -24 -167 -49 -164 -44 -960 -270 -983 -279 -7 -3 -55 28 -108
70 -374 292 -794 587 -1192 837 l-170 107 -3 560 c-2 528 -1 561 15 566 44 13
304 58 463 81 215 30 384 45 600 55 91 4 171 8 179 8 8 1 68 -28 135 -65z
m-3859 -750 c-60 -148 -135 -453 -185 -753 -31 -185 -41 -230 -50 -230 -4 0
-16 33 -26 73 -26 100 -24 242 5 377 26 122 108 374 142 442 31 60 135 143
114 91z m2320 -593 c-9 -15 -711 -516 -805 -575 -41 -26 -43 -26 -25 -5 36 42
326 268 459 358 117 80 362 232 373 232 2 0 1 -4 -2 -10z m-2189 -659 c314
-90 670 -196 779 -232 l61 -19 18 -73 c89 -349 293 -1004 442 -1416 45 -123
73 -215 70 -227 -3 -12 -88 -136 -188 -275 -100 -140 -269 -378 -376 -529
-107 -151 -196 -276 -197 -278 -5 -6 -297 123 -485 214 -212 103 -493 260
-641 357 l-94 62 -53 140 c-104 276 -217 676 -278 989 -23 116 -26 145 -16
180 16 60 129 312 227 504 143 282 385 692 409 692 7 0 151 -40 322 -89z
m5053 -40 c191 -307 376 -658 500 -948 l60 -141 -29 -149 c-31 -162 -78 -366
-110 -483 -67 -242 -199 -620 -229 -654 -29 -33 -284 -189 -496 -302 -270
-145 -712 -344 -724 -326 -3 4 -62 87 -130 183 -497 697 -631 889 -631 901 0
9 31 100 69 204 136 376 327 980 432 1369 17 66 37 125 43 131 6 7 90 35 186
64 218 65 891 258 939 270 20 4 37 8 38 9 1 1 38 -57 82 -128z m-2604 -1956
c402 0 692 -3 645 -6 l-85 -5 73 -2 c118 -3 142 -20 261 -187 36 -49 66 -92
68 -94 2 -2 5 -2 8 1 3 2 -8 22 -25 44 -16 21 -30 43 -30 47 0 18 -135 197
-148 197 -7 0 -10 5 -7 10 11 18 21 11 67 -52 24 -35 94 -130 153 -213 268
-370 567 -790 572 -802 6 -14 -122 -170 -308 -378 -123 -137 -435 -448 -580
-578 l-86 -77 -194 -15 c-248 -19 -770 -19 -1022 0 -103 8 -193 17 -200 21 -6
4 -64 54 -127 110 -218 193 -590 584 -795 833 l-57 71 27 43 c58 87 672 948
724 1015 l26 32 155 -7 c85 -5 484 -8 885 -8z m-2234 -1786 c274 -182 545
-317 829 -414 127 -44 130 -45 130 -59 0 -7 -11 -23 -25 -36 -31 -29 -48 -26
-191 35 -332 142 -660 345 -839 518 -58 57 -57 56 96 -44z"/>
<path d="M4844 7026 c21 -10 25 -15 15 -20 -8 -3 -4 -3 7 -1 14 4 24 0 28 -11
3 -8 12 -14 19 -11 6 2 21 -3 31 -12 11 -9 16 -10 12 -3 -11 18 2 15 31 -8 14
-11 30 -17 37 -14 6 2 3 -1 -6 -8 -15 -11 3 -22 134 -85 83 -40 153 -71 155
-69 3 2 -5 7 -18 11 -17 6 -19 9 -8 16 19 12 32 11 24 -1 -3 -5 -1 -10 5 -10
7 0 10 6 7 13 -2 6 -14 11 -26 10 -13 -2 -20 1 -16 7 4 6 -1 7 -11 3 -11 -4
-15 -3 -10 5 3 6 1 14 -5 18 -9 5 -10 0 -7 -14 7 -26 2 -27 -32 -6 -23 14 -23
14 -2 9 17 -5 22 -2 22 12 0 10 -4 14 -8 8 -4 -5 -18 -11 -32 -12 l-25 -3 24
14 c19 10 20 14 8 19 -9 3 -18 -1 -21 -9 -3 -8 -11 -14 -17 -14 -8 0 -8 5 2
16 10 13 10 17 -2 25 -8 5 -19 7 -26 4 -6 -2 -14 1 -17 8 -2 7 -5 4 -5 -5 -1
-10 -5 -18 -10 -18 -5 0 -7 10 -3 22 3 14 2 19 -6 14 -7 -4 -12 -2 -12 5 0 7
-3 9 -6 6 -4 -4 -1 -13 6 -22 10 -12 10 -15 -1 -15 -25 1 -63 27 -50 34 6 4
16 4 21 1 6 -3 10 -2 10 3 0 6 -13 15 -30 21 -16 5 -30 8 -30 5 0 -3 -7 2 -16
11 -9 9 -23 14 -30 11 -8 -3 -14 -2 -14 3 0 4 -25 18 -56 30 -60 23 -87 27
-40 7z"/>
</g>
</svg>
